{
    "asset" : {
        "generator" : "Khronos glTF Blender I/O v1.7.33",
        "version" : "2.0"
    },
    "scene" : 0,
    "scenes" : [
        {
            "name" : "Scene",
            "nodes" : [
                0
            ]
        }
    ],
    "nodes" : [
        {
            "mesh" : 0,
            "name" : "Earth"
        }
    ],
    "materials" : [
        {
            "doubleSided" : true,
            "name" : "Earth",
            "normalTexture" : {
                "index" : 0,
                "scale" : 10
            },
            "pbrMetallicRoughness" : {
                "baseColorTexture" : {
                    "index" : 1
                },
                "metallicFactor" : 0,
                "roughnessFactor" : 0.5
            }
        }
    ],
    "meshes" : [
        {
            "name" : "Sphere.002",
            "primitives" : [
                {
                    "attributes" : {
                        "POSITION" : 0,
                        "NORMAL" : 1,
                        "TEXCOORD_0" : 2
                    },
                    "indices" : 3,
                    "material" : 0
                }
            ]
        }
    ],
    "textures" : [
        {
            "sampler" : 0,
            "source" : 0
        },
        {
            "sampler" : 0,
            "source" : 1
        }
    ],
    "images" : [
        {
            "bufferView" : 4,
            "mimeType" : "image/png",
            "name" : "2k_earth_normal_map"
        },
        {
            "bufferView" : 5,
            "mimeType" : "image/jpeg",
            "name" : "2k_earth_clouds"
        }
    ],
    "accessors" : [
        {
            "bufferView" : 0,
            "componentType" : 5126,
            "count" : 10482,
            "max" : [
                0.9967162609100342,
                0.9998325705528259,
                0.9967181086540222
            ],
            "min" : [
                -0.9967167973518372,
                -0.9998325705528259,
                -0.9967158436775208
            ],
            "type" : "VEC3"
        },
        {
            "bufferView" : 1,
            "componentType" : 5126,
            "count" : 10482,
            "type" : "VEC3"
        },
        {
            "bufferView" : 2,
            "componentType" : 5126,
            "count" : 10482,
            "type" : "VEC2"
        },
        {
            "bufferView" : 3,
            "componentType" : 5123,
            "count" : 59400,
            "type" : "SCALAR"
        }
    ],
    "bufferViews" : [
        {
            "buffer" : 0,
            "byteLength" : 125784,
            "byteOffset" : 0
        },
        {
            "buffer" : 0,
            "byteLength" : 125784,
            "byteOffset" : 125784
        },
        {
            "buffer" : 0,
            "byteLength" : 83856,
            "byteOffset" : 251568
        },
        {
            "buffer" : 0,
            "byteLength" : 118800,
            "byteOffset" : 335424
        },
        {
            "buffer" : 0,
            "byteLength" : 622325,
            "byteOffset" : 454224
        },
        {
            "buffer" : 0,
            "byteLength" : 965676,
            "byteOffset" : 1076552
        }
    ],
    "samplers" : [
        {
            "magFilter" : 9729,
            "minFilter" : 9987
        }
    ],
    "buffers" : [
        {
            "byteLength" : 2042228,
            "uri" : "data:application/octet-stream;base64,"
        }
    ]
}
